<?xml version="1.0" encoding="UTF-8"?>
<svg id="Layer_2" data-name="Layer 2" xmlns="http://www.w3.org/2000/svg" viewBox="0 0 631.24 166.24">
  <defs>
    <style>
      .cls-1 {
        fill: #ff9e10;
      }

      .cls-2 {
        fill: #fff;
      }

      .cls-3 {
        fill: #212121;
      }
    </style>
  </defs>
  <g id="_레이어_1" data-name="레이어 1">
    <g>
      <g>
        <polygon class="cls-3" points="36.78 0 73.56 62.33 0 62.33 36.78 0"/>
        <polygon class="cls-3" points="118.73 33.2 118.73 62.33 73.47 62.33 73.47 4.08 102.59 4.08 102.59 33.2 118.73 33.2"/>
        <rect class="cls-3" x="123.38" y="4.08" width="30.29" height="58.25"/>
        <polygon class="cls-3" points="215.74 4.08 193.94 33.2 215.74 62.41 158.66 62.41 158.66 4.08 215.74 4.08"/>
        <polygon class="cls-3" points="266.66 3.99 266.66 18.74 252.15 18.74 252.15 26.13 266.66 26.13 266.66 40.11 252.15 40.11 252.15 47.5 266.66 47.5 266.66 62.24 218.4 62.24 218.4 3.99 266.66 3.99"/>
      </g>
      <path class="cls-3" d="M279.38,21.14c-3.74-1.16-6.49-4.58-6.49-8.32,0-5.16,4.24-9.24,9.32-9.24,5.41,0,9.65,4.08,9.65,9.24,0,2-.83,3.91-2.08,5.41l-8.32,9.99-1.5-.58-.58-6.49Z"/>
      <path class="cls-3" d="M298.6,62.41V4.08h29.12c16.06,0,29.13,13.15,29.13,29.21s-13.06,29.13-29.13,29.13h-29.12Z"/>
      <path class="cls-2" d="M315.9,45.1V21.38h11.82c6.52,0,11.82,5.34,11.82,11.9s-5.3,11.82-11.82,11.82h-11.82Z"/>
      <g>
        <path class="cls-1" d="M327.44,121.47c0,4.66-4.24,8.74-9.65,8.74-5.08,0-9.32-4.08-9.32-8.74,0-5.16,4.24-9.24,9.32-9.24,5.41,0,9.65,4.08,9.65,9.24Z"/>
        <path class="cls-1" d="M327.44,146.94c0,4.66-4.24,8.74-9.65,8.74-5.08,0-9.32-4.08-9.32-8.74,0-5.16,4.24-9.24,9.32-9.24,5.41,0,9.65,4.08,9.65,9.24Z"/>
      </g>
      <g>
        <polygon class="cls-3" points="4.66 101.67 33.79 123.72 62.91 101.67 63.08 162.16 4.83 162.16 4.66 101.67"/>
        <path class="cls-3" d="M128.3,132.96c0,17.14-13.9,31.04-31.04,31.04s-31.04-13.9-31.04-31.04,13.9-31.04,31.04-31.04,31.04,13.9,31.04,31.04Z"/>
        <polygon class="cls-3" points="158.42 166.24 121.55 103.83 195.2 103.83 158.42 166.24"/>
        <rect class="cls-3" x="195.6" y="103.92" width="30.29" height="58.25"/>
        <polygon class="cls-3" points="279.06 103.83 279.06 118.58 264.54 118.58 264.54 125.97 279.06 125.97 279.06 139.95 264.54 139.95 264.54 147.34 279.06 147.34 279.06 162.08 230.79 162.08 230.79 103.83 279.06 103.83"/>
        <path class="cls-1" d="M97.27,149.66c-9.21,0-16.7-7.5-16.7-16.71s7.49-16.71,16.7-16.71,16.7,7.5,16.7,16.71-7.49,16.71-16.7,16.71Zm0-24.76c-4.44,0-8.05,3.61-8.05,8.05s3.61,8.05,8.05,8.05,8.05-3.61,8.05-8.05-3.61-8.05-8.05-8.05Z"/>
      </g>
      <g>
        <polygon class="cls-3" points="356.85 101.67 385.97 123.72 415.1 101.67 415.26 162.16 357.01 162.16 356.85 101.67"/>
        <path class="cls-3" d="M480.49,132.96c0,17.14-13.9,31.04-31.04,31.04s-31.04-13.9-31.04-31.04,13.9-31.04,31.04-31.04,31.04,13.9,31.04,31.04Z"/>
        <polygon class="cls-3" points="510.6 166.24 473.74 103.83 547.38 103.83 510.6 166.24"/>
        <rect class="cls-3" x="547.79" y="103.92" width="30.29" height="58.25"/>
        <polygon class="cls-3" points="631.24 103.83 631.24 118.58 616.73 118.58 616.73 125.97 631.24 125.97 631.24 139.95 616.73 139.95 616.73 147.34 631.24 147.34 631.24 162.08 582.98 162.08 582.98 103.83 631.24 103.83"/>
        <path class="cls-1" d="M449.45,149.66c-9.21,0-16.7-7.5-16.7-16.71s7.49-16.71,16.7-16.71,16.71,7.5,16.71,16.71-7.5,16.71-16.71,16.71Zm0-24.76c-4.44,0-8.05,3.61-8.05,8.05s3.61,8.05,8.05,8.05,8.05-3.61,8.05-8.05-3.61-8.05-8.05-8.05Z"/>
      </g>
      <rect class="cls-1" x="31.34" y="35.34" width="10.87" height="36.16"/>
    </g>
  </g>
</svg>